<svg xmlns="http://www.w3.org/2000/svg" width="32" height="32">
<!-- icon-antenna -->
<symbol id="icon-antenna" viewBox="0 0 32 32">
<path d="m30.773 22.098-8.443-8.505.937-4.615c.242.094.499.144.758.146h.006a2.159 2.159 0 1 0-2.008-1.435l-4.96.605L8.972.161a.534.534 0 0 0-.377-.16.532.532 0 0 0-.373.155L6.709 1.66a.534.534 0 0 0 0 .754l.814.826a14.943 14.943 0 0 0 2.519 17.663.513.513 0 0 0 .146.098c-.034.18-.051.364-.052.547v6.187h-6.4a2.67 2.67 0 0 0-2.667 2.667v1.067c0 .295.239.533.533.533h24.533a.533.533 0 0 0 .533-.533v-1.067a2.67 2.67 0 0 0-2.667-2.667h-6.4v-2.742a15.09 15.09 0 0 0 3.049.32 14.854 14.854 0 0 0 7.04-1.783l.818.823a.534.534 0 0 0 .377.16.532.532 0 0 0 .373-.155l1.513-1.504a.534.534 0 0 0 0-.754zM23.28 6.233a1.067 1.067 0 1 1 .753 1.822h-.003a1.067 1.067 0 0 1-.747-1.823h-.002zm-1.256 3.505-.598 2.946-1.175-1.182 1.774-1.763zm-.605-.902-1.92 1.909-1.485-1.493 3.405-.415zM24.004 28.8a1.6 1.6 0 0 1 1.6 1.6v.533H2.137V30.4a1.6 1.6 0 0 1 1.6-1.6h20.267zm-7.467-2.133v1.067h-5.333v-1.067h5.333zM11.204 25.6v-4.053c0-1.294 1.196-2.347 2.667-2.347s2.667 1.053 2.667 2.347V25.6h-5.333zm6.4-1.696v-2.357c0-1.882-1.675-3.413-3.733-3.413a3.8 3.8 0 0 0-3.281 1.786A13.87 13.87 0 0 1 8.311 4.033l18.602 18.708a13.818 13.818 0 0 1-9.309 1.163zm11.289-.684L7.836 2.039l.755-.752 7.935 7.98c.004 0 .006.007.01.01l13.115 13.191-.757.752z"/><path d="M13.876 20.267h-.005a1.6 1.6 0 1 0-.004 3.2h.005a1.6 1.6 0 1 0 .004-3.2zm.373 1.978a.534.534 0 0 1-.752-.756.534.534 0 0 1 .373-.155.534.534 0 0 1 .374.911h.005z"/>
</symbol>
<!-- icon-astonaut -->
<symbol id="icon-astonaut" viewBox="0 0 32 32">
<path d="M31.974 4.524a.534.534 0 0 0-.43-.363l-1.91-.278-.855-1.731c-.179-.365-.777-.365-.956 0l-.855 1.731-1.91.278a.535.535 0 0 0-.296.91l1.383 1.348-.326 1.903c-.034.2.048.402.212.522a.53.53 0 0 0 .562.04l1.709-.899 1.709.899a.536.536 0 0 0 .775-.563l-.326-1.903 1.383-1.348a.536.536 0 0 0 .135-.547zm-2.463 1.327a.534.534 0 0 0-.153.472l.191 1.114-1-.526a.533.533 0 0 0-.498 0l-1.001.526.191-1.114a.534.534 0 0 0-.153-.472l-.81-.789 1.119-.163a.532.532 0 0 0 .402-.292l.5-1.013.5 1.013a.535.535 0 0 0 .402.292l1.119.163-.809.789zM26.133 20.522h-1.067v1.067h1.067v-1.067zM26.133 22.656h-1.067v1.067h1.067v-1.067zM27.2 21.589h-1.067v1.067H27.2v-1.067zM25.067 21.589H24v1.067h1.067v-1.067zM22.4 26.389h-1.067v1.067H22.4v-1.067zM22.4 28.522h-1.067v1.067H22.4v-1.067zM23.467 27.456H22.4v1.067h1.067v-1.067zM21.333 27.456h-1.067v1.067h1.067v-1.067zM16 24.256h-1.067v1.067H16v-1.067zM16 26.389h-1.067v1.067H16v-1.067zM17.067 25.322H16v1.067h1.067v-1.067zM14.933 25.322h-1.067v1.067h1.067v-1.067zM5.867 6.122H4.8v1.067h1.067V6.122zM5.867 8.255H4.8v1.067h1.067V8.255z"/><path d="M6.933 7.189H5.866v1.067h1.067V7.189zM4.8 7.189H3.733v1.067H4.8V7.189z"/><path d="M24.715 14.159a1.775 1.775 0 0 0-1.188-.705 1.778 1.778 0 0 0-1.34.352l-1.252.96-1.898 1.417-1.358-.541c2.421-1.086 4.114-3.508 4.114-6.32 0-3.823-3.123-6.933-6.961-6.933s-6.961 3.11-6.961 6.933a6.86 6.86 0 0 0 1.12 3.758l-2.764-.024h-.005c-.009 0-.015.004-.023.005a.515.515 0 0 0-.155.031l-.038.013c-.006.003-.013.003-.019.006l-3.233 1.596-.001.001-1.893.911a.397.397 0 0 0-.063.035 1.779 1.779 0 0 0-.598 2.295c.22.429.595.745 1.056.889a1.776 1.776 0 0 0 1.378-.128l1.388-.738 2.264-1.169 1.357-.008L2.2 22.211l-.002.001-1.339 1.333c-.316.315-.49.732-.49 1.178s.174.863.49 1.179c.325.323.752.485 1.179.485s.854-.162 1.18-.485l1.314-1.309 1.741-1.3.901.897-1.762 1.754-.002.001-1.339 1.333c-.316.315-.49.732-.49 1.178s.174.863.49 1.179c.325.323.753.485 1.18.485s.855-.162 1.18-.485l3.482-3.467.001-.002 1.01-1-.004-.004c.006-.006.015-.009.022-.015l5.166-5.658 3.471.494a.52.52 0 0 0 .262-.033c.018-.006.033-.015.05-.023.019-.01.039-.015.058-.027l3.213-2.133c.012-.008.018-.021.029-.029.013-.01.029-.014.041-.026l1.271-1.191c.662-.62.753-1.635.212-2.362zM2.13 17.77a.714.714 0 0 1-.558.052.717.717 0 0 1-.213-1.26l1.314-.632.449 1.313-.992.527zm3.498-1.828-1.548.8-.439-1.283 2.027-1.001-.04 1.484zm15.099-6.62a5.79 5.79 0 0 1-.599 2.559l-4.181-1.899a1.863 1.863 0 0 0-.788-1.388l1.464-4.86c2.378.756 4.105 2.974 4.105 5.588zm-11.789 0c0-3.235 2.644-5.867 5.894-5.867.253 0 .5.021.745.052l-1.432 4.754c-.019-.001-.037-.006-.057-.006-1.033 0-1.873.837-1.873 1.867s.84 1.867 1.873 1.867c.694 0 1.294-.383 1.618-.945l3.862 1.755a5.894 5.894 0 0 1-4.737 2.39c-3.25 0-5.894-2.632-5.894-5.867zm5.956.8c0 .441-.362.8-.806.8s-.806-.359-.806-.8c0-.441.362-.8.806-.8s.806.359.806.8zM2.465 25.146a.608.608 0 0 1-.854.001.592.592 0 0 1 0-.844l.962-.958.851.848-.959.955zm3.214 3.734a.608.608 0 0 1-.855.001.592.592 0 0 1 0-.844l.963-.959.852.848-.96.955zm3.481-3.469-.002.001-1.765 1.76-.852-.848 1.763-1.755.002-.001c.04-.04.065-.088.09-.135.007-.014.02-.026.026-.04.017-.041.019-.085.026-.129.003-.025.014-.047.014-.073 0-.036-.013-.07-.02-.106-.006-.032-.006-.065-.019-.095a.55.55 0 0 0-.091-.138c-.01-.012-.014-.027-.025-.038h-.001l-.001-.002-1.607-1.6c-.017-.017-.039-.024-.058-.038a.507.507 0 0 0-.087-.058.515.515 0 0 0-.093-.033.507.507 0 0 0-.103-.02.5.5 0 0 0-.095.005.53.53 0 0 0-.104.02.477.477 0 0 0-.094.045c-.02.011-.042.015-.061.029L4.23 23.486l-.901-.897 2.399-2.386 4.361 4.289-.928.919zm6.819-7.017c-.015-.002-.03.004-.045.003a.556.556 0 0 0-.3.075.492.492 0 0 0-.083.061c-.013.011-.028.017-.04.029l-4.698 5.146-4.328-4.257 2.833-2.818a.534.534 0 0 0-.379-.911v-.001l-2.219.013.028-1.607 3.104.027a6.947 6.947 0 0 0 4.981 2.101c.437 0 .864-.045 1.279-.123.04.032.079.065.13.085l2.41.96.152.758.178.885-3.003-.427zm4.041.178-.313-1.558 1.446-1.08.947 1.257-2.08 1.381zm3.754-2.831-.838.785-.931-1.236.831-.637a.735.735 0 0 1 .543-.143.718.718 0 0 1 .48.284.713.713 0 0 1-.085.947z"/><path d="m13.602 18.544-2.143-2.133a.534.534 0 0 0-.753 0l-2.142 2.133a.537.537 0 0 0 0 .756l2.142 2.133a.536.536 0 0 0 .753 0l2.143-2.133a.535.535 0 0 0 0-.756zm-2.519 1.759-1.387-1.381 1.387-1.381 1.387 1.381-1.387 1.381zM17.164 5.071l-.258 1.036c.071.018 1.738.452 1.738 2.149h1.067c0-2.017-1.666-2.965-2.547-3.185zM19.711 9.322h-1.067v1.067h1.067V9.322z"/>
</symbol>
<!-- icon-clock -->
<symbol id="icon-clock" viewBox="0 0 32 32">
<path d="M31.297 15.301C31.295 6.849 24.442-.002 15.989 0S.686 6.855.688 15.308a15.304 15.304 0 0 0 10.649 14.576.662.662 0 0 0 .529-.065.637.637 0 0 0 .283-.356l3.865-12.25a1.912 1.912 0 1 0-.84-3.635l-5.106-5.107a.637.637 0 0 0-.902.902l5.103 5.109a1.876 1.876 0 0 0 .536 2.309l-3.683 11.673C3.844 25.783.118 17.71 2.799 10.432S13.553-.572 20.831 2.109c7.278 2.681 11.004 10.754 8.323 18.032a14.042 14.042 0 0 1-7.462 7.973l-.398-1.874a.637.637 0 0 0-1.049-.344l-3.837 3.426a.637.637 0 0 0 .231 1.084l4.899 1.564a.638.638 0 0 0 .819-.74l-.391-1.839a15.255 15.255 0 0 0 9.329-14.089zm-15.305-.637a.638.638 0 1 1 0 1.277.638.638 0 0 1 0-1.277zm2.101 14.864 2.184-1.948.603 2.84-2.787-.892z"/><path d="M15.354 3.185V4.46a.638.638 0 1 0 1.276 0V3.185a.638.638 0 0 0-1.276 0zM3.876 14.664a.638.638 0 0 0 0 1.276h1.275a.638.638 0 1 0 0-1.276H3.876zM28.108 15.939a.638.638 0 1 0 0-1.276h-1.275a.638.638 0 0 0 0 1.276h1.275z"/>
</symbol>
<!-- icon-diagram -->
<symbol id="icon-diagram" viewBox="0 0 32 32">
<path d="M14.925 14.965h1.066v4.798h-1.066v-4.797zM19.19 17.097h1.066v2.665H19.19v-2.665zM10.661 18.696h1.066v1.066h-1.066v-1.066zM7.463 18.163h1.066v1.599H7.463v-1.599z"/><path  d="M1.599 28.291h25.587a1.6 1.6 0 0 0 1.599-1.599V24.56a1.6 1.6 0 0 0-1.599-1.599h-.533V9.668L29.681 6.8a1.608 1.608 0 1 0-.746-.763L26.654 8.2V6.97a1.6 1.6 0 0 0-1.599-1.599H3.733A1.6 1.6 0 0 0 2.134 6.97v15.992h-.533a1.6 1.6 0 0 0-1.599 1.599v2.132a1.6 1.6 0 0 0 1.599 1.599zM30.384 4.837a.533.533 0 1 1 0 1.067.533.533 0 0 1 0-1.067zM3.198 6.969c0-.294.239-.533.533-.533h21.322c.294 0 .533.239.533.533v2.239l-1.066 1.013V8.035a.533.533 0 0 0-.533-.533H4.797a.533.533 0 0 0-.533.533v13.326c0 .294.239.533.533.533h19.19a.533.533 0 0 0 .533-.533v-9.674l1.066-1.01v12.284H3.198V6.969zm4.798 6.93a1.598 1.598 0 1 0 1.107 2.749l1.853.93a.532.532 0 0 0 .636-.123l3.939-4.431 3.872 2.901a.533.533 0 0 0 .686-.039l3.365-3.188v8.131H5.33V8.569h18.124v2.66l-3.771 3.572-3.904-2.927a.533.533 0 0 0-.718.072l-3.993 4.493-1.493-.746c.011-.064.018-.129.02-.193a1.6 1.6 0 0 0-1.599-1.599zm.533 1.599a.533.533 0 1 1-1.067 0 .533.533 0 0 1 1.067 0zm3.198 8.529h5.331v.533a.533.533 0 0 1-.533.533h-4.264a.533.533 0 0 1-.533-.533v-.533zm-10.661.533c0-.294.239-.533.533-.533h9.062v.533a1.6 1.6 0 0 0 1.599 1.599h4.264a1.6 1.6 0 0 0 1.599-1.599v-.533h9.062c.294 0 .533.239.533.533v2.132a.533.533 0 0 1-.533.533H1.598a.533.533 0 0 1-.533-.533V24.56z"/>
</symbol>
<!-- icon-facebook -->
<symbol id="icon-facebook" viewBox="0 0 32 32">
<path d="M21.329 5.313h2.921V.225C23.746.156 22.013 0 19.994 0c-4.212 0-7.097 2.649-7.097 7.519V12H8.249v5.688h4.648V32h5.699V17.689h4.46l.708-5.688h-5.169V8.082c.001-1.644.444-2.769 2.735-2.769z"/>
</symbol>
<!-- icon-inctagram -->
<symbol id="icon-inctagram" viewBox="0 0 32 32">
<path  d="M31.969 9.408c-.075-1.7-.35-2.869-.744-3.882a7.803 7.803 0 0 0-1.85-2.838A7.867 7.867 0 0 0 26.543.844C25.524.45 24.361.175 22.661.1 20.948.019 20.404 0 16.06 0s-4.888.019-6.595.094c-1.7.075-2.869.35-3.882.744a7.803 7.803 0 0 0-2.838 1.85A7.867 7.867 0 0 0 .901 5.52C.507 6.539.232 7.702.157 9.402c-.081 1.713-.1 2.257-.1 6.601s.019 4.888.094 6.595c.075 1.7.35 2.869.744 3.882a7.895 7.895 0 0 0 1.85 2.838 7.867 7.867 0 0 0 2.832 1.844c1.019.394 2.182.669 3.882.744 1.706.075 2.25.094 6.595.094s4.888-.019 6.595-.094c1.7-.075 2.869-.35 3.882-.744a8.181 8.181 0 0 0 4.682-4.682c.394-1.019.669-2.182.744-3.882.075-1.707.094-2.25.094-6.595s-.006-4.888-.081-6.595zm-2.882 13.065c-.069 1.563-.331 2.407-.55 2.969a5.31 5.31 0 0 1-3.038 3.038c-.563.219-1.413.481-2.969.55-1.688.075-2.194.094-6.464.094s-4.782-.019-6.464-.094c-1.563-.069-2.407-.331-2.969-.55a4.926 4.926 0 0 1-1.838-1.194 4.974 4.974 0 0 1-1.194-1.838c-.219-.563-.481-1.413-.55-2.969-.075-1.688-.094-2.194-.094-6.464s.019-4.782.094-6.464c.069-1.563.331-2.407.55-2.969a4.868 4.868 0 0 1 1.2-1.838A4.974 4.974 0 0 1 6.639 3.55c.563-.219 1.413-.481 2.969-.55 1.688-.075 2.194-.094 6.464-.094 4.276 0 4.782.019 6.464.094 1.563.069 2.407.331 2.969.55a4.914 4.914 0 0 1 1.838 1.194 4.974 4.974 0 0 1 1.194 1.838c.219.563.481 1.413.55 2.969.075 1.688.094 2.194.094 6.464s-.019 4.77-.094 6.458z"/><path  d="M16.059 7.783c-4.538 0-8.22 3.682-8.22 8.22s3.682 8.22 8.22 8.22 8.22-3.682 8.22-8.22-3.682-8.22-8.22-8.22zm0 13.552a5.333 5.333 0 0 1 0-10.664 5.333 5.333 0 0 1 0 10.664zM26.524 7.458a1.919 1.919 0 1 1-3.838 0 1.919 1.919 0 0 1 3.838 0z"/>
</symbol>
<!-- icon-linkedin -->
<symbol id="icon-linkedin" viewBox="0 0 32 32">
<path d="M31.992 32v-.001H32V20.263c0-5.741-1.236-10.164-7.948-10.164-3.227 0-5.392 1.771-6.276 3.449h-.093v-2.913h-6.364v21.364h6.627V21.42c0-2.785.528-5.479 3.977-5.479 3.399 0 3.449 3.179 3.449 5.657v10.401h6.62zM.528 10.636h6.635V32H.528V10.636zM3.843 0C1.722 0 0 1.721 0 3.843s1.721 3.879 3.843 3.879c2.121 0 3.843-1.757 3.843-3.879A3.846 3.846 0 0 0 3.843 0z"/>
</symbol>
<!-- icon-twitter -->
<symbol id="icon-twitter" viewBox="0 0 32 32">
<path d="M32 6.078c-1.19.522-2.458.868-3.78 1.036a6.523 6.523 0 0 0 2.886-3.626 13.11 13.11 0 0 1-4.16 1.588A6.574 6.574 0 0 0 22.154 3c-3.632 0-6.556 2.948-6.556 6.562 0 .52.044 1.02.152 1.496-5.454-.266-10.28-2.88-13.522-6.862a6.605 6.605 0 0 0-.898 3.316 6.57 6.57 0 0 0 2.914 5.452 6.479 6.479 0 0 1-2.964-.808v.072c0 3.188 2.274 5.836 5.256 6.446a6.548 6.548 0 0 1-1.72.216 5.8 5.8 0 0 1-1.242-.112c.85 2.598 3.262 4.508 6.13 4.57a13.182 13.182 0 0 1-8.134 2.798c-.538 0-1.054-.024-1.57-.09A18.469 18.469 0 0 0 10.064 29c12.072 0 18.672-10 18.672-18.668 0-.29-.01-.57-.024-.848A13.087 13.087 0 0 0 32 6.078z"/>
</symbol>
<!-- icon-send -->
<symbol id="icon-send">
<path d="M24 2L0 13.25L7.66994 15.6172L19.5 6.375L10.5017 16.4913L10.509 16.4936L10.5 16.4913V22L14.8013 17.8183L20.2501 19.5L24 2Z" fill="white"/>
</symbol>
<!-- icon-cloce -->
<symbol id="icon-cloce" viewBox="0 0 32 32">
<path d="M32 3.223 28.777 0 16 12.777 3.223 0 0 3.223 12.777 16 0 28.777 3.223 32 16 19.223 28.777 32 32 28.777 19.223 16 32 3.223z"/>
</symbol>
<!-- icon-name -->
<symbol id="icon-name" viewBox="0 0 32 32">
<path d="M16 16c2.947 0 5.333-2.387 5.333-5.333S18.946 5.334 16 5.334c-2.947 0-5.333 2.387-5.333 5.333S13.054 16 16 16zm0 2.667c-3.56 0-10.667 1.787-10.667 5.333v1.333c0 .733.6 1.333 1.333 1.333h18.667c.733 0 1.333-.6 1.333-1.333V24c0-3.547-7.107-5.333-10.667-5.333z"/>
</symbol>
<!-- icon-phone -->
<symbol id="icon-phone" viewBox="0 0 32 32">
<path d="m19.635 18.487-2.451-.28a1.92 1.92 0 0 0-1.582.55l-1.775 1.775a14.514 14.514 0 0 1-6.359-6.359l1.785-1.785c.415-.415.618-.994.55-1.582l-.28-2.432a1.931 1.931 0 0 0-1.92-1.708H5.934c-1.09 0-1.997.907-1.93 1.997.511 8.24 7.102 14.821 15.332 15.332 1.09.068 1.997-.839 1.997-1.93v-1.669a1.913 1.913 0 0 0-1.698-1.911z"/>
</symbol>
<!-- icon-email -->
<symbol id="icon-email" viewBox="0 0 32 32">
<path d="M20 8H4c-1.1 0-1.99.9-1.99 2L2 22c0 1.1.9 2 2 2h16c1.1 0 2-.9 2-2V10c0-1.1-.9-2-2-2zm-.4 4.25-7.07 4.42c-.32.2-.74.2-1.06 0L4.4 12.25a.85.85 0 1 1 .9-1.44L12 15l6.7-4.19a.85.85 0 1 1 .9 1.44z"/>
</symbol>
<symbol id="icon-accept" viewBox="0 0 32 32">
<path fill="#8e8f99" d="M2.962 3.615v21H.178v-21h2.784zm23.55 18.332v-8.034c0-.615-.125-1.149-.375-1.601-.241-.462-.606-.817-1.096-1.067s-1.096-.375-1.817-.375c-.673 0-1.264.115-1.774.346-.5.231-.894.534-1.183.909a1.99 1.99 0 0 0-.418 1.212h-2.668c0-.558.144-1.111.433-1.659s.702-1.043 1.24-1.486c.548-.452 1.202-.808 1.962-1.067.769-.269 1.625-.404 2.567-.404 1.135 0 2.135.192 3 .577.875.385 1.558.966 2.048 1.745.5.769.75 1.736.75 2.899v7.269c0 .519.043 1.072.13 1.659.096.587.236 1.091.418 1.514v.231h-2.784c-.135-.308-.24-.716-.317-1.226a9.87 9.87 0 0 1-.115-1.442zm.462-6.793.029 1.875h-2.697c-.76 0-1.438.063-2.034.188-.596.115-1.096.293-1.5.534s-.712.543-.923.909c-.212.356-.317.774-.317 1.255 0 .49.111.938.332 1.341s.553.726.995.966c.452.231 1.005.346 1.659.346.817 0 1.538-.173 2.163-.519s1.12-.769 1.486-1.269c.375-.5.577-.986.606-1.457l1.139 1.284c-.067.404-.25.851-.548 1.341s-.697.962-1.197 1.413a6.46 6.46 0 0 1-1.76 1.111c-.673.288-1.433.433-2.279.433-1.058 0-1.986-.207-2.784-.62-.788-.413-1.404-.966-1.846-1.659a4.389 4.389 0 0 1-.649-2.351c0-.837.163-1.572.49-2.207a4.264 4.264 0 0 1 1.413-1.601c.615-.433 1.356-.76 2.221-.981s1.832-.332 2.899-.332h3.101zm13.83 7.558c.635 0 1.221-.13 1.76-.389s.981-.615 1.327-1.067c.346-.462.543-.986.592-1.572h2.538c-.048.923-.361 1.784-.938 2.582-.567.788-1.313 1.428-2.236 1.918-.923.481-1.937.721-3.043.721-1.173 0-2.197-.207-3.072-.62a6.08 6.08 0 0 1-2.163-1.702 7.617 7.617 0 0 1-1.284-2.481 10.465 10.465 0 0 1-.418-2.986v-.606c0-1.048.139-2.038.418-2.971a7.56 7.56 0 0 1 1.284-2.495 6.1 6.1 0 0 1 2.163-1.702c.875-.413 1.899-.62 3.072-.62 1.221 0 2.288.25 3.202.75a5.502 5.502 0 0 1 2.149 2.019c.529.846.817 1.808.865 2.885h-2.538a3.846 3.846 0 0 0-.548-1.745 3.418 3.418 0 0 0-1.269-1.24c-.529-.317-1.149-.476-1.861-.476-.817 0-1.505.163-2.063.49-.548.317-.986.75-1.313 1.298a6.052 6.052 0 0 0-.692 1.803 9.89 9.89 0 0 0-.202 2.005v.606c0 .683.067 1.356.202 2.019s.361 1.264.678 1.803a3.77 3.77 0 0 0 1.313 1.298c.558.317 1.25.476 2.077.476zm16.643 0c.635 0 1.221-.13 1.76-.389s.981-.615 1.327-1.067c.346-.462.543-.986.591-1.572h2.539c-.048.923-.361 1.784-.938 2.582-.567.788-1.313 1.428-2.236 1.918-.923.481-1.937.721-3.043.721-1.173 0-2.197-.207-3.072-.62a6.088 6.088 0 0 1-2.163-1.702 7.617 7.617 0 0 1-1.284-2.481 10.465 10.465 0 0 1-.418-2.986v-.606c0-1.048.14-2.038.418-2.971a7.56 7.56 0 0 1 1.284-2.495 6.1 6.1 0 0 1 2.163-1.702c.875-.413 1.899-.62 3.072-.62 1.221 0 2.288.25 3.202.75a5.502 5.502 0 0 1 2.149 2.019c.529.846.817 1.808.865 2.885h-2.539a3.846 3.846 0 0 0-.548-1.745 3.418 3.418 0 0 0-1.269-1.24c-.529-.317-1.149-.476-1.86-.476-.817 0-1.505.163-2.063.49-.548.317-.986.75-1.313 1.298a6.052 6.052 0 0 0-.692 1.803 9.89 9.89 0 0 0-.202 2.005v.606c0 .683.067 1.356.202 2.019s.361 1.264.678 1.803c.327.538.765.971 1.313 1.298.558.317 1.25.476 2.077.476zm16.874 2.192c-1.087 0-2.072-.183-2.957-.548a6.696 6.696 0 0 1-2.264-1.572c-.625-.673-1.106-1.471-1.442-2.394s-.505-1.933-.505-3.029v-.606c0-1.269.187-2.399.562-3.389.375-1 .884-1.846 1.529-2.538s1.375-1.216 2.192-1.572 1.663-.534 2.538-.534c1.116 0 2.077.192 2.885.577a5.265 5.265 0 0 1 2.005 1.615c.519.683.904 1.49 1.154 2.423.25.923.375 1.933.375 3.029v1.197H68.739v-2.178h8.986v-.202a6.643 6.643 0 0 0-.433-2.019c-.24-.654-.625-1.192-1.154-1.615s-1.25-.635-2.163-.635a3.64 3.64 0 0 0-1.673.389c-.51.25-.947.625-1.313 1.125s-.649 1.111-.851 1.832c-.202.721-.303 1.553-.303 2.495v.606c0 .74.101 1.438.303 2.091.212.644.514 1.212.909 1.702.404.49.889.875 1.457 1.154.577.279 1.231.418 1.962.418.942 0 1.74-.192 2.394-.577s1.226-.899 1.716-1.543l1.615 1.284c-.337.51-.764.995-1.284 1.457s-1.159.837-1.918 1.125c-.75.288-1.64.433-2.668.433zM87.359 12.01v18.606h-2.683V9.01h2.452l.231 3zm10.514 4.673v.303c0 1.135-.135 2.188-.404 3.159-.269.962-.663 1.798-1.183 2.51-.51.712-1.139 1.264-1.889 1.659s-1.611.591-2.582.591c-.99 0-1.865-.163-2.625-.49s-1.404-.803-1.933-1.428c-.529-.625-.952-1.375-1.269-2.25-.308-.875-.519-1.861-.635-2.957v-1.615c.115-1.154.332-2.188.649-3.101s.736-1.692 1.255-2.337a5.157 5.157 0 0 1 1.918-1.486c.75-.346 1.615-.519 2.596-.519s1.851.192 2.611.577c.76.375 1.399.913 1.918 1.615s.909 1.543 1.168 2.524c.269.971.404 2.053.404 3.245zm-2.683.303v-.303c0-.779-.082-1.51-.245-2.192a5.531 5.531 0 0 0-.764-1.817 3.64 3.64 0 0 0-1.298-1.24c-.529-.308-1.159-.462-1.889-.462-.673 0-1.26.115-1.76.346-.49.231-.909.543-1.255.938-.346.385-.63.827-.851 1.327-.211.49-.37 1-.476 1.529v3.736a8.33 8.33 0 0 0 .808 1.904 4.177 4.177 0 0 0 1.385 1.428c.577.356 1.303.534 2.178.534.721 0 1.341-.149 1.86-.447a3.772 3.772 0 0 0 1.298-1.255 5.719 5.719 0 0 0 .764-1.817 9.605 9.605 0 0 0 .245-2.207zm13.802-7.976v2.048h-8.438V9.01h8.438zm-5.582-3.794h2.668V20.75c0 .529.082.928.245 1.197s.375.447.635.534c.26.087.538.13.836.13.221 0 .452-.019.692-.058.25-.048.437-.087.562-.115l.015 2.178c-.212.067-.491.13-.837.188a6.387 6.387 0 0 1-1.226.101c-.654 0-1.255-.13-1.803-.389s-.986-.692-1.313-1.298c-.318-.615-.476-1.442-.476-2.481V5.218zm24.935 3.794v2.048h-8.437V9.01h8.437zm-5.581-3.794h2.668V20.75c0 .529.082.928.245 1.197s.375.447.635.534c.26.087.539.13.837.13.221 0 .452-.019.692-.058.25-.048.438-.087.562-.115l.015 2.178c-.211.067-.49.13-.836.188a6.387 6.387 0 0 1-1.226.101c-.654 0-1.255-.13-1.803-.389s-.986-.692-1.313-1.298c-.317-.615-.476-1.442-.476-2.481V5.218zm12.561-2.754v22.154h-2.668V2.462h2.668zm-.635 13.759-1.111-.043c.01-1.067.168-2.053.476-2.957.308-.913.74-1.707 1.298-2.38s1.221-1.192 1.99-1.558c.779-.375 1.639-.563 2.582-.563.769 0 1.462.106 2.077.317a3.768 3.768 0 0 1 1.572.981c.442.452.779 1.038 1.01 1.76.231.712.346 1.582.346 2.611v10.226h-2.683V14.36c0-.817-.12-1.471-.361-1.962-.24-.5-.591-.861-1.053-1.082-.462-.231-1.029-.346-1.702-.346-.664 0-1.269.139-1.817.418a4.333 4.333 0 0 0-1.399 1.154 5.786 5.786 0 0 0-.909 1.688 6.151 6.151 0 0 0-.317 1.99zm21.893 8.683c-1.087 0-2.072-.183-2.957-.548a6.71 6.71 0 0 1-2.265-1.572c-.625-.673-1.106-1.471-1.442-2.394s-.505-1.933-.505-3.029v-.606c0-1.269.188-2.399.562-3.389.375-1 .885-1.846 1.529-2.538s1.375-1.216 2.192-1.572a6.29 6.29 0 0 1 2.538-.534c1.115 0 2.077.192 2.885.577a5.265 5.265 0 0 1 2.005 1.615c.519.683.904 1.49 1.154 2.423.25.923.375 1.933.375 3.029v1.197H151v-2.178h8.985v-.202a6.643 6.643 0 0 0-.433-2.019c-.24-.654-.625-1.192-1.154-1.615s-1.25-.635-2.163-.635c-.606 0-1.164.13-1.673.389-.51.25-.947.625-1.313 1.125s-.649 1.111-.851 1.832-.303 1.553-.303 2.495v.606c0 .74.101 1.438.303 2.091.211.644.514 1.212.909 1.702.404.49.889.875 1.457 1.154.577.279 1.231.418 1.962.418.942 0 1.741-.192 2.394-.577s1.226-.899 1.716-1.543l1.615 1.284c-.337.51-.765.995-1.284 1.457s-1.159.837-1.918 1.125c-.75.288-1.639.433-2.668.433zM181.995 9.01v2.048h-8.437V9.01h8.437zm-5.582-3.794h2.668V20.75c0 .529.082.928.245 1.197s.375.447.635.534c.26.087.539.13.837.13.221 0 .452-.019.692-.058.25-.048.438-.087.562-.115l.015 2.178c-.211.067-.49.13-.836.188a6.387 6.387 0 0 1-1.226.101c-.654 0-1.255-.13-1.803-.389s-.986-.692-1.313-1.298c-.317-.615-.476-1.442-.476-2.481V5.218zm16.369 19.688c-1.087 0-2.072-.183-2.957-.548a6.696 6.696 0 0 1-2.264-1.572c-.625-.673-1.106-1.471-1.442-2.394s-.505-1.933-.505-3.029v-.606c0-1.269.188-2.399.563-3.389.375-1 .884-1.846 1.529-2.538s1.375-1.216 2.192-1.572 1.663-.534 2.538-.534c1.116 0 2.077.192 2.885.577a5.265 5.265 0 0 1 2.005 1.615c.519.683.904 1.49 1.154 2.423.25.923.375 1.933.375 3.029v1.197h-11.654v-2.178h8.986v-.202a6.673 6.673 0 0 0-.433-2.019c-.24-.654-.625-1.192-1.154-1.615s-1.25-.635-2.163-.635a3.64 3.64 0 0 0-1.673.389c-.51.25-.947.625-1.313 1.125s-.649 1.111-.851 1.832c-.202.721-.303 1.553-.303 2.495v.606c0 .74.101 1.438.303 2.091.212.644.514 1.212.909 1.702.404.49.889.875 1.457 1.154.577.279 1.231.418 1.962.418.942 0 1.74-.192 2.394-.577s1.226-.899 1.716-1.543l1.615 1.284c-.337.51-.764.995-1.284 1.457s-1.159.837-1.918 1.125c-.75.288-1.639.433-2.668.433zm13.037-13.442v13.154h-2.668V9.01h2.596l.072 2.452zm4.875-2.539-.014 2.481a3.908 3.908 0 0 0-.635-.087 6.82 6.82 0 0 0-.664-.029c-.615 0-1.159.096-1.63.288s-.87.462-1.197.808c-.327.346-.587.76-.779 1.24-.183.471-.303.99-.361 1.558l-.75.433c0-.942.091-1.827.274-2.654a7.211 7.211 0 0 1 .88-2.192 4.307 4.307 0 0 1 1.5-1.5c.615-.365 1.346-.548 2.192-.548.192 0 .413.024.663.072.25.038.423.082.519.13zm6.302 3.188v12.505h-2.683V9.01h2.538l.144 3.101zm-.548 4.11-1.241-.043c.01-1.067.149-2.053.418-2.957.269-.913.668-1.707 1.197-2.38s1.187-1.192 1.976-1.558c.788-.375 1.702-.563 2.74-.563.731 0 1.404.106 2.019.317.615.202 1.149.524 1.601.966s.803 1.01 1.053 1.702c.25.692.375 1.529.375 2.51v10.399h-2.668V14.345c0-.817-.139-1.471-.418-1.962a2.39 2.39 0 0 0-1.154-1.067c-.5-.231-1.087-.346-1.76-.346-.788 0-1.447.139-1.976.418s-.952.663-1.269 1.154-.548 1.053-.692 1.688a9.408 9.408 0 0 0-.202 1.99zm10.111-1.471-1.789.548c.01-.856.149-1.678.418-2.466a6.716 6.716 0 0 1 1.197-2.106 5.679 5.679 0 0 1 1.947-1.457c.769-.365 1.649-.548 2.639-.548.837 0 1.577.111 2.221.332a4.017 4.017 0 0 1 1.644 1.024c.452.452.793 1.034 1.024 1.745s.346 1.558.346 2.538v10.255h-2.683V14.331c0-.875-.14-1.553-.418-2.034a2.18 2.18 0 0 0-1.154-1.024c-.49-.202-1.077-.303-1.76-.303-.586 0-1.106.101-1.558.303s-.832.481-1.139.837a3.654 3.654 0 0 0-.707 1.197 4.442 4.442 0 0 0-.231 1.442zm23.954 5.726c0-.385-.086-.74-.258-1.067-.165-.337-.505-.639-1.024-.909-.51-.279-1.28-.519-2.309-.721a18.382 18.382 0 0 1-2.35-.649c-.692-.25-1.284-.553-1.774-.909-.481-.356-.851-.774-1.111-1.255s-.389-1.043-.389-1.688c0-.615.135-1.197.404-1.745a4.684 4.684 0 0 1 1.168-1.457c.51-.423 1.12-.755 1.832-.995s1.504-.361 2.38-.361c1.25 0 2.316.221 3.202.663.884.442 1.561 1.034 2.033 1.774.47.731.706 1.543.706 2.438h-2.668c0-.433-.13-.851-.389-1.255-.251-.413-.62-.755-1.113-1.024-.48-.269-1.071-.404-1.772-.404-.741 0-1.342.115-1.803.346-.452.221-.784.505-.995.851a2.142 2.142 0 0 0-.303 1.096c0 .288.048.548.144.779.106.221.288.428.548.62.259.183.625.356 1.096.519s1.072.327 1.803.49c1.28.288 2.331.635 3.158 1.038s1.442.899 1.846 1.486c.404.587.606 1.298.606 2.135a4.08 4.08 0 0 1-.431 1.875 4.179 4.179 0 0 1-1.228 1.471c-.527.404-1.162.721-1.903.952-.731.221-1.553.332-2.466.332-1.375 0-2.538-.245-3.49-.736s-1.673-1.125-2.163-1.904-.736-1.601-.736-2.466h2.683c.039.731.25 1.313.635 1.745.385.423.856.726 1.414.909.558.173 1.109.26 1.658.26.731 0 1.342-.096 1.831-.288.5-.192.881-.457 1.14-.793a1.83 1.83 0 0 0 .389-1.154zm25.066 1.471v-8.034c0-.615-.126-1.149-.374-1.601a2.45 2.45 0 0 0-1.098-1.067c-.49-.25-1.095-.375-1.817-.375-.672 0-1.265.115-1.775.346-.5.231-.894.534-1.182.909a1.997 1.997 0 0 0-.418 1.212h-2.668c0-.558.145-1.111.433-1.659s.702-1.043 1.241-1.486c.546-.452 1.201-.808 1.962-1.067.768-.269 1.625-.404 2.567-.404 1.132 0 2.134.192 2.998.577.876.385 1.558.966 2.048 1.745.5.769.751 1.736.751 2.899v7.269c0 .519.044 1.072.13 1.659.096.587.234 1.091.418 1.514v.231h-2.784c-.135-.308-.241-.716-.318-1.226-.076-.519-.116-1-.116-1.442zm.46-6.793.03 1.875h-2.695c-.761 0-1.438.063-2.036.188-.596.115-1.095.293-1.499.534s-.711.543-.923.909c-.212.356-.318.774-.318 1.255 0 .49.111.938.332 1.341s.551.726.994.966c.453.231 1.004.346 1.659.346.817 0 1.538-.173 2.164-.519s1.12-.769 1.484-1.269c.377-.5.578-.986.606-1.457l1.14 1.284c-.066.404-.249.851-.546 1.341s-.699.962-1.199 1.413a6.463 6.463 0 0 1-1.758 1.111c-.674.288-1.435.433-2.279.433-1.058 0-1.986-.207-2.784-.62-.788-.413-1.403-.966-1.846-1.659a4.39 4.39 0 0 1-.65-2.351c0-.837.165-1.572.49-2.207a4.27 4.27 0 0 1 1.415-1.601c.615-.433 1.354-.76 2.22-.981s1.831-.332 2.9-.332h3.099zm10.255-2.813v12.274h-2.668V9.009h2.523l.145 3.332zm-.635 3.88-1.11-.043c.01-1.067.167-2.053.475-2.957.308-.913.741-1.707 1.3-2.38a5.783 5.783 0 0 1 1.989-1.558c.78-.375 1.639-.563 2.582-.563.77 0 1.462.106 2.078.317.615.202 1.14.529 1.573.981.441.452.778 1.038 1.009 1.76.229.712.345 1.582.345 2.611v10.226h-2.681V14.36c0-.817-.121-1.471-.362-1.962-.241-.5-.591-.861-1.054-1.082-.46-.231-1.029-.346-1.701-.346-.665 0-1.27.139-1.817.418a4.34 4.34 0 0 0-1.401 1.154 5.807 5.807 0 0 0-.908 1.688 6.152 6.152 0 0 0-.318 1.99zm25.312 5.366V2.462h2.683v22.154h-2.452l-.231-3.029zm-10.501-4.601v-.303c0-1.192.145-2.274.433-3.245.298-.981.716-1.822 1.255-2.524a5.674 5.674 0 0 1 1.947-1.615c.758-.385 1.605-.577 2.538-.577.982 0 1.836.173 2.567.519a4.945 4.945 0 0 1 1.876 1.486c.519.644.928 1.423 1.226 2.337s.505 1.947.62 3.101v1.327c-.106 1.144-.313 2.173-.62 3.087-.298.913-.706 1.692-1.226 2.337a5.145 5.145 0 0 1-1.876 1.486c-.741.336-1.605.505-2.597.505-.913 0-1.75-.197-2.508-.591a5.915 5.915 0 0 1-1.947-1.659c-.539-.712-.958-1.548-1.255-2.51-.288-.971-.433-2.024-.433-3.159zm2.683-.303v.303c0 .779.076 1.51.231 2.192.162.683.414 1.284.751 1.803a3.71 3.71 0 0 0 1.282 1.226c.519.288 1.14.433 1.861.433.884 0 1.61-.188 2.178-.563a4.175 4.175 0 0 0 1.383-1.486 8.524 8.524 0 0 0 .807-2.005V15.11a7.699 7.699 0 0 0-.505-1.529c-.212-.5-.49-.942-.837-1.327a3.602 3.602 0 0 0-1.253-.938c-.492-.231-1.073-.346-1.745-.346-.731 0-1.361.154-1.89.462a3.662 3.662 0 0 0-1.282 1.24 5.714 5.714 0 0 0-.751 1.817 9.886 9.886 0 0 0-.231 2.192zm30.59 6.029c.635 0 1.221-.13 1.76-.389s.98-.615 1.327-1.067c.345-.462.544-.986.591-1.572h2.538c-.047.923-.359 1.784-.938 2.582-.566.788-1.312 1.428-2.235 1.918-.923.481-1.937.721-3.042.721-1.174 0-2.198-.207-3.072-.62a6.074 6.074 0 0 1-2.164-1.702 7.613 7.613 0 0 1-1.282-2.481 10.395 10.395 0 0 1-.418-2.986v-.606c0-1.048.138-2.038.418-2.971a7.594 7.594 0 0 1 1.282-2.495 6.077 6.077 0 0 1 2.164-1.702c.874-.413 1.898-.62 3.072-.62 1.221 0 2.289.25 3.202.75a5.502 5.502 0 0 1 2.149 2.019c.529.846.817 1.808.864 2.885h-2.538a3.823 3.823 0 0 0-.549-1.745 3.407 3.407 0 0 0-1.268-1.24c-.529-.317-1.15-.476-1.861-.476-.817 0-1.504.163-2.063.49-.549.317-.985.75-1.312 1.298a5.998 5.998 0 0 0-.692 1.803 9.89 9.89 0 0 0-.202 2.005v.606c0 .683.066 1.356.202 2.019.133.663.359 1.264.677 1.803.327.538.766.971 1.312 1.298.559.317 1.25.476 2.078.476zm9.691-5.726v-.332c0-1.125.162-2.168.49-3.13.327-.971.798-1.813 1.413-2.524a6.293 6.293 0 0 1 2.238-1.673c.874-.404 1.856-.606 2.942-.606 1.095 0 2.082.202 2.956.606a6.267 6.267 0 0 1 2.25 1.673c.625.712 1.1 1.553 1.428 2.524.327.962.49 2.005.49 3.13v.332c0 1.125-.162 2.168-.49 3.13s-.802 1.803-1.428 2.524a6.541 6.541 0 0 1-2.235 1.673c-.866.394-1.846.591-2.942.591-1.098 0-2.082-.197-2.956-.591a6.697 6.697 0 0 1-2.252-1.673c-.615-.721-1.086-1.563-1.413-2.524s-.49-2.005-.49-3.13zm2.668-.332v.332c0 .779.091 1.514.273 2.207a5.89 5.89 0 0 0 .822 1.817c.377.529.842.947 1.401 1.255.556.298 1.206.447 1.947.447.731 0 1.369-.149 1.918-.447a4 4 0 0 0 1.383-1.255c.367-.529.64-1.135.822-1.817.194-.692.29-1.428.29-2.207v-.332c0-.769-.096-1.495-.29-2.178a5.616 5.616 0 0 0-.834-1.832 3.98 3.98 0 0 0-1.386-1.269c-.549-.308-1.191-.462-1.932-.462-.731 0-1.376.154-1.932.462a4.172 4.172 0 0 0-1.386 1.269 5.848 5.848 0 0 0-.822 1.832 8.428 8.428 0 0 0-.273 2.178zm18.735-4.313v12.274h-2.668V9.009h2.523l.145 3.332zm-.635 3.88-1.11-.043c.01-1.067.167-2.053.475-2.957.308-.913.741-1.707 1.3-2.38a5.783 5.783 0 0 1 1.989-1.558c.78-.375 1.639-.563 2.582-.563.768 0 1.462.106 2.078.317.615.202 1.14.529 1.57.981.443.452.78 1.038 1.012 1.76.229.712.345 1.582.345 2.611v10.226h-2.683V14.36c0-.817-.118-1.471-.359-1.962-.241-.5-.591-.861-1.054-1.082-.46-.231-1.029-.346-1.701-.346-.665 0-1.27.139-1.819.418a4.35 4.35 0 0 0-1.398 1.154 5.807 5.807 0 0 0-.908 1.688 6.152 6.152 0 0 0-.318 1.99zm25.312 5.366V2.462h2.683v22.154h-2.452l-.231-3.029zm-10.501-4.601v-.303c0-1.192.145-2.274.433-3.245.298-.981.716-1.822 1.255-2.524a5.646 5.646 0 0 1 1.947-1.615c.758-.385 1.605-.577 2.538-.577.98 0 1.836.173 2.567.519a4.945 4.945 0 0 1 1.876 1.486c.519.644.928 1.423 1.226 2.337s.505 1.947.62 3.101v1.327c-.106 1.144-.313 2.173-.62 3.087-.298.913-.706 1.692-1.226 2.337a5.145 5.145 0 0 1-1.876 1.486c-.741.336-1.605.505-2.597.505-.913 0-1.75-.197-2.508-.591a5.885 5.885 0 0 1-1.947-1.659c-.539-.712-.958-1.548-1.255-2.51-.288-.971-.433-2.024-.433-3.159zm2.683-.303v.303c0 .779.076 1.51.231 2.192.162.683.414 1.284.748 1.803.337.519.766.928 1.285 1.226.519.288 1.14.433 1.861.433.884 0 1.61-.188 2.178-.563.576-.375 1.036-.87 1.383-1.486s.615-1.284.807-2.005V15.11a7.699 7.699 0 0 0-.505-1.529c-.212-.5-.49-.942-.837-1.327a3.592 3.592 0 0 0-1.255-.938c-.49-.231-1.071-.346-1.745-.346-.729 0-1.359.154-1.888.462a3.696 3.696 0 0 0-1.285 1.24 5.734 5.734 0 0 0-.748 1.817 9.886 9.886 0 0 0-.231 2.192zm18.735-7.673v15.606h-2.683V9.01h2.683zm-2.885-4.14c0-.433.13-.798.389-1.096.271-.298.665-.447 1.184-.447.51 0 .898.149 1.167.447.281.298.418.663.418 1.096 0 .413-.138.769-.418 1.067-.268.288-.657.433-1.167.433-.519 0-.913-.144-1.184-.433a1.578 1.578 0 0 1-.389-1.067zm14.882 4.14v2.048h-8.436V9.01h8.436zm-5.58-3.794h2.668V20.75c0 .529.081.928.244 1.197.165.269.377.447.635.534.261.087.539.13.837.13.222 0 .453-.019.692-.058.251-.048.438-.087.564-.115l.015 2.178c-.212.067-.492.13-.837.188a6.395 6.395 0 0 1-1.226.101 4.17 4.17 0 0 1-1.804-.389c-.546-.26-.985-.692-1.312-1.298-.318-.615-.475-1.442-.475-2.481V5.218zm12.793 3.794v15.606h-2.683V9.01h2.683zm-2.885-4.14c0-.433.128-.798.389-1.096.268-.298.662-.447 1.182-.447.51 0 .901.149 1.169.447.278.298.418.663.418 1.096 0 .413-.14.769-.418 1.067-.268.288-.66.433-1.169.433-.519 0-.913-.144-1.182-.433a1.564 1.564 0 0 1-.389-1.067zm7.643 12.116v-.332c0-1.125.162-2.168.49-3.13.327-.971.798-1.813 1.413-2.524a6.309 6.309 0 0 1 2.235-1.673c.876-.404 1.856-.606 2.944-.606 1.095 0 2.08.202 2.956.606a6.284 6.284 0 0 1 2.25 1.673c.625.712 1.1 1.553 1.428 2.524.327.962.49 2.005.49 3.13v.332c0 1.125-.162 2.168-.49 3.13s-.802 1.803-1.428 2.524a6.541 6.541 0 0 1-2.235 1.673c-.866.394-1.846.591-2.944.591-1.095 0-2.08-.197-2.956-.591a6.71 6.71 0 0 1-2.25-1.673c-.615-.721-1.086-1.563-1.413-2.524s-.49-2.005-.49-3.13zm2.668-.332v.332c0 .779.091 1.514.273 2.207.182.683.458 1.288.822 1.817.374.529.842.947 1.398 1.255.559.298 1.209.447 1.947.447.731 0 1.371-.149 1.92-.447a4.027 4.027 0 0 0 1.383-1.255c.367-.529.64-1.135.822-1.817a8.223 8.223 0 0 0 .288-2.207v-.332c0-.769-.096-1.495-.288-2.178a5.56 5.56 0 0 0-.837-1.832 3.97 3.97 0 0 0-1.383-1.269c-.549-.308-1.194-.462-1.932-.462-.731 0-1.376.154-1.932.462a4.143 4.143 0 0 0-1.386 1.269 5.803 5.803 0 0 0-.822 1.832 8.428 8.428 0 0 0-.273 2.178zm18.735-4.313v12.274h-2.668V9.009h2.523l.145 3.332zm-.635 3.88-1.11-.043a9.308 9.308 0 0 1 .475-2.957c.308-.913.741-1.707 1.297-2.38a5.8 5.8 0 0 1 1.991-1.558c.778-.375 1.639-.563 2.582-.563.768 0 1.46.106 2.075.317.615.202 1.14.529 1.573.981.443.452.78 1.038 1.009 1.76.231.712.347 1.582.347 2.611v10.226h-2.683V14.36c0-.817-.121-1.471-.359-1.962-.241-.5-.593-.861-1.054-1.082-.463-.231-1.029-.346-1.703-.346-.662 0-1.268.139-1.817.418a4.33 4.33 0 0 0-1.398 1.154 5.807 5.807 0 0 0-.908 1.688 6.152 6.152 0 0 0-.318 1.99zm24.561 4.255c0-.385-.086-.74-.261-1.067-.162-.337-.505-.639-1.024-.909-.51-.279-1.278-.519-2.306-.721a18.307 18.307 0 0 1-2.351-.649c-.694-.25-1.285-.553-1.775-.909a3.8 3.8 0 0 1-1.11-1.255c-.261-.481-.389-1.043-.389-1.688 0-.615.133-1.197.404-1.745a4.666 4.666 0 0 1 1.167-1.457 5.68 5.68 0 0 1 1.831-.995c.714-.24 1.506-.361 2.38-.361 1.25 0 2.319.221 3.202.663s1.563 1.034 2.033 1.774c.473.731.706 1.543.706 2.438h-2.668c0-.433-.128-.851-.389-1.255-.249-.413-.62-.755-1.11-1.024-.48-.269-1.073-.404-1.775-.404-.741 0-1.342.115-1.802.346-.453.221-.785.505-.994.851a2.142 2.142 0 0 0-.303 1.096c0 .288.047.548.143.779.106.221.288.428.549.62.258.183.625.356 1.095.519s1.073.327 1.802.49c1.28.288 2.334.635 3.161 1.038s1.442.899 1.846 1.486c.404.587.606 1.298.606 2.135a4.141 4.141 0 0 1-1.659 3.346c-.529.404-1.164.721-1.903.952-.731.221-1.553.332-2.466.332-1.376 0-2.54-.245-3.49-.736-.953-.49-1.674-1.125-2.164-1.904-.492-.779-.736-1.601-.736-2.466h2.683c.037.731.249 1.313.635 1.745.384.423.854.726 1.413.909.556.173 1.11.26 1.659.26.729 0 1.339-.096 1.831-.288.5-.192.879-.457 1.14-.793.258-.337.389-.721.389-1.154zm15.156-3.49v-.332c0-1.125.162-2.168.49-3.13.327-.971.798-1.813 1.413-2.524a6.293 6.293 0 0 1 2.238-1.673c.874-.404 1.856-.606 2.942-.606 1.095 0 2.082.202 2.956.606a6.267 6.267 0 0 1 2.25 1.673 7.283 7.283 0 0 1 1.428 2.524c.327.962.492 2.005.492 3.13v.332c0 1.125-.165 2.168-.492 3.13a7.434 7.434 0 0 1-1.428 2.524 6.522 6.522 0 0 1-2.235 1.673c-.866.394-1.846.591-2.942.591-1.098 0-2.082-.197-2.956-.591a6.697 6.697 0 0 1-2.252-1.673c-.615-.721-1.086-1.563-1.413-2.524s-.49-2.005-.49-3.13zm2.668-.332v.332c0 .779.091 1.514.273 2.207a5.89 5.89 0 0 0 .822 1.817c.377.529.842.947 1.401 1.255.556.298 1.206.447 1.947.447.731 0 1.369-.149 1.918-.447a4.036 4.036 0 0 0 1.386-1.255 5.878 5.878 0 0 0 .822-1.817 8.223 8.223 0 0 0 .288-2.207v-.332c0-.769-.096-1.495-.288-2.178a5.684 5.684 0 0 0-.837-1.832 3.98 3.98 0 0 0-1.386-1.269c-.546-.308-1.191-.462-1.932-.462-.731 0-1.376.154-1.932.462a4.172 4.172 0 0 0-1.386 1.269 5.848 5.848 0 0 0-.822 1.832 8.428 8.428 0 0 0-.273 2.178zm20.047 7.961h-2.668V7.365c0-1.125.202-2.072.606-2.841a4.073 4.073 0 0 1 1.775-1.76c.768-.404 1.684-.606 2.74-.606.308 0 .615.019.923.058.318.038.625.096.923.173l-.143 2.178a4.4 4.4 0 0 0-.694-.101 9.862 9.862 0 0 0-.748-.029c-.569 0-1.058.115-1.472.346-.404.221-.711.548-.923.981s-.318.966-.318 1.601v17.25zm3.318-15.605v2.048h-8.453V9.01h8.453zm19.195 0v2.048h-8.438V9.01h8.438zm-5.583-3.794h2.668V20.75c0 .529.081.928.246 1.197.162.269.374.447.633.534.261.087.539.13.837.13.222 0 .453-.019.694-.058.249-.048.436-.087.561-.115l.015 2.178c-.212.067-.49.13-.837.188a6.395 6.395 0 0 1-1.226.101c-.655 0-1.255-.13-1.802-.389-.549-.26-.987-.692-1.314-1.298-.315-.615-.475-1.442-.475-2.481V5.218zm12.561-2.754v22.154h-2.668V2.462h2.668zm-.635 13.759-1.11-.043c.01-1.067.17-2.053.478-2.957.308-.913.738-1.707 1.297-2.38a5.783 5.783 0 0 1 1.989-1.558c.78-.375 1.639-.563 2.582-.563.77 0 1.462.106 2.078.317.615.202 1.14.529 1.573.981.441.452.778 1.038 1.009 1.76.231.712.345 1.582.345 2.611v10.226h-2.681V14.36c0-.817-.121-1.471-.362-1.962-.241-.5-.591-.861-1.054-1.082-.46-.231-1.029-.346-1.701-.346-.665 0-1.27.139-1.817.418a4.372 4.372 0 0 0-1.401 1.154 5.807 5.807 0 0 0-.908 1.688 6.152 6.152 0 0 0-.318 1.99zm21.893 8.683c-1.086 0-2.07-.183-2.956-.548a6.72 6.72 0 0 1-2.265-1.572 6.998 6.998 0 0 1-1.442-2.394c-.335-.923-.505-1.933-.505-3.029v-.606c0-1.269.187-2.399.564-3.389.374-1 .884-1.846 1.529-2.538s1.374-1.216 2.193-1.572a6.287 6.287 0 0 1 2.538-.534c1.115 0 2.078.192 2.885.577a5.27 5.27 0 0 1 2.004 1.615c.519.683.903 1.49 1.154 2.423.249.923.374 1.933.374 3.029v1.197h-11.653v-2.178h8.985v-.202a6.584 6.584 0 0 0-.433-2.019c-.239-.654-.623-1.192-1.152-1.615s-1.25-.635-2.164-.635c-.606 0-1.164.13-1.674.389-.51.25-.948.625-1.312 1.125-.367.5-.65 1.111-.852 1.832s-.303 1.553-.303 2.495v.606c0 .74.101 1.438.303 2.091.212.644.514 1.212.908 1.702.404.49.891.875 1.457 1.154.576.279 1.231.418 1.962.418.943 0 1.74-.192 2.395-.577a5.954 5.954 0 0 0 1.716-1.543l1.615 1.284c-.337.51-.763.995-1.282 1.457s-1.159.837-1.92 1.125c-.748.288-1.639.433-2.668.433z"/>
  <path fill="#4d5ae5" d="M585.376 16.38h-5.61v-2.264h5.61c1.086 0 1.967-.173 2.639-.519.674-.346 1.164-.827 1.472-1.442.318-.615.475-1.317.475-2.106 0-.721-.158-1.399-.475-2.034-.308-.635-.798-1.144-1.472-1.529-.672-.394-1.553-.591-2.639-.591h-4.962v18.721h-2.784v-21h7.746c1.585 0 2.927.274 4.025.822 1.095.548 1.927 1.308 2.494 2.279.569.962.852 2.063.852 3.303 0 1.346-.283 2.495-.852 3.447-.566.952-1.398 1.678-2.494 2.178-1.098.49-2.439.736-4.025.736zm14.336-4.918v13.154h-2.668V9.01h2.594l.074 2.452zm4.874-2.539-.015 2.481a3.923 3.923 0 0 0-.635-.087 6.806 6.806 0 0 0-.662-.029c-.615 0-1.159.096-1.63.288a3.376 3.376 0 0 0-1.199.808c-.325.346-.586.76-.778 1.24-.182.471-.303.99-.359 1.558l-.751.433c0-.942.091-1.827.273-2.654a7.213 7.213 0 0 1 .881-2.192 4.313 4.313 0 0 1 1.499-1.5c.615-.365 1.346-.548 2.193-.548.192 0 .414.024.662.072.251.038.423.082.519.13zm6.548.087v15.606h-2.683V9.01h2.683zm-2.885-4.14c0-.433.13-.798.389-1.096.271-.298.665-.447 1.184-.447.51 0 .898.149 1.167.447.278.298.418.663.418 1.096 0 .413-.14.769-.418 1.067-.268.288-.657.433-1.167.433-.519 0-.913-.144-1.184-.433a1.578 1.578 0 0 1-.389-1.067zm13.095 17.337 4.268-13.197h2.727l-5.612 15.606h-1.787l.404-2.409zM617.782 9.01l4.399 13.269.303 2.337h-1.79L615.04 9.01h2.742zm23.276 12.937v-8.034c0-.615-.126-1.149-.374-1.601a2.45 2.45 0 0 0-1.098-1.067c-.49-.25-1.095-.375-1.817-.375-.672 0-1.265.115-1.775.346-.5.231-.894.534-1.182.909a1.997 1.997 0 0 0-.418 1.212h-2.668c0-.558.145-1.111.433-1.659s.702-1.043 1.241-1.486c.546-.452 1.201-.808 1.962-1.067.768-.269 1.625-.404 2.567-.404 1.135 0 2.134.192 2.998.577.876.385 1.558.966 2.048 1.745.502.769.751 1.736.751 2.899v7.269c0 .519.044 1.072.13 1.659.096.587.236 1.091.418 1.514v.231h-2.784c-.135-.308-.241-.716-.318-1.226-.076-.519-.116-1-.116-1.442zm.463-6.793.027 1.875h-2.695c-.761 0-1.438.063-2.036.188-.596.115-1.095.293-1.499.534s-.711.543-.923.909c-.212.356-.318.774-.318 1.255 0 .49.111.938.332 1.341s.554.726.994.966c.453.231 1.004.346 1.659.346.817 0 1.538-.173 2.164-.519s1.12-.769 1.484-1.269c.377-.5.578-.986.608-1.457l1.137 1.284c-.066.404-.249.851-.546 1.341s-.697.962-1.199 1.413a6.463 6.463 0 0 1-1.758 1.111c-.674.288-1.433.433-2.279.433-1.058 0-1.986-.207-2.784-.62-.788-.413-1.403-.966-1.846-1.659a4.39 4.39 0 0 1-.65-2.351c0-.837.165-1.572.492-2.207a4.247 4.247 0 0 1 1.413-1.601c.615-.433 1.356-.76 2.22-.981.866-.221 1.831-.332 2.9-.332h3.102zm13.829 7.558c.635 0 1.221-.13 1.76-.389s.982-.615 1.327-1.067c.347-.462.544-.986.591-1.572h2.54c-.049.923-.362 1.784-.938 2.582-.569.788-1.312 1.428-2.235 1.918-.923.481-1.94.721-3.045.721-1.172 0-2.196-.207-3.072-.62a6.118 6.118 0 0 1-2.164-1.702 7.613 7.613 0 0 1-1.282-2.481 10.5 10.5 0 0 1-.418-2.986v-.606c0-1.048.14-2.038.418-2.971a7.594 7.594 0 0 1 1.282-2.495 6.12 6.12 0 0 1 2.164-1.702c.876-.413 1.9-.62 3.072-.62 1.221 0 2.289.25 3.202.75a5.502 5.502 0 0 1 2.149 2.019c.529.846.817 1.808.866 2.885h-2.54a3.832 3.832 0 0 0-.546-1.745 3.413 3.413 0 0 0-1.27-1.24c-.529-.317-1.15-.476-1.861-.476-.817 0-1.504.163-2.063.49-.546.317-.985.75-1.312 1.298a5.998 5.998 0 0 0-.692 1.803 9.89 9.89 0 0 0-.202 2.005v.606c0 .683.066 1.356.202 2.019s.359 1.264.677 1.803c.327.538.766.971 1.312 1.298.559.317 1.25.476 2.078.476zm14.784.288 4.34-13.99h2.855l-6.26 18.014a9.594 9.594 0 0 1-.576 1.24c-.231.452-.529.88-.894 1.284a4.266 4.266 0 0 1-1.327.981c-.51.26-1.12.389-1.831.389a4.86 4.86 0 0 1-.807-.086 8.269 8.269 0 0 1-.694-.144l-.015-2.163c.079.01.197.019.362.029.172.019.293.029.359.029.606 0 1.12-.082 1.543-.245.423-.154.78-.418 1.068-.793.298-.366.554-.87.763-1.515l1.113-3.029zm-3.188-13.99 4.052 12.115.692 2.813-1.918.981-5.74-15.909h2.914zm30.632 7.37h-5.61v-2.264h5.61c1.086 0 1.967-.173 2.639-.519.674-.346 1.164-.827 1.472-1.442.318-.615.475-1.317.475-2.106 0-.721-.158-1.399-.475-2.034-.308-.635-.798-1.144-1.472-1.529-.672-.394-1.553-.591-2.639-.591h-4.962v18.721h-2.782v-21h7.744c1.588 0 2.929.274 4.025.822s1.927 1.308 2.496 2.279c.566.962.849 2.063.849 3.303 0 1.346-.283 2.495-.849 3.447-.569.952-1.401 1.678-2.496 2.178-1.095.49-2.437.736-4.025.736zm10.759.606v-.332c0-1.125.162-2.168.49-3.13.327-.971.798-1.813 1.413-2.524a6.309 6.309 0 0 1 2.235-1.673c.876-.404 1.856-.606 2.944-.606 1.095 0 2.08.202 2.956.606a6.284 6.284 0 0 1 2.25 1.673c.625.712 1.1 1.553 1.428 2.524.327.962.49 2.005.49 3.13v.332c0 1.125-.162 2.168-.49 3.13s-.802 1.803-1.428 2.524a6.541 6.541 0 0 1-2.235 1.673c-.866.394-1.846.591-2.944.591-1.095 0-2.08-.197-2.956-.591a6.71 6.71 0 0 1-2.25-1.673c-.615-.721-1.086-1.563-1.413-2.524s-.49-2.005-.49-3.13zm2.669-.332v.332c0 .779.091 1.514.273 2.207.182.683.458 1.288.822 1.817.374.529.842.947 1.398 1.255.559.298 1.209.447 1.947.447.731 0 1.371-.149 1.92-.447a4.027 4.027 0 0 0 1.383-1.255c.367-.529.64-1.135.822-1.817a8.223 8.223 0 0 0 .288-2.207v-.332c0-.769-.096-1.495-.288-2.178a5.56 5.56 0 0 0-.837-1.832 3.97 3.97 0 0 0-1.383-1.269c-.549-.308-1.194-.462-1.932-.462-.731 0-1.376.154-1.932.462a4.143 4.143 0 0 0-1.386 1.269 5.803 5.803 0 0 0-.822 1.832 8.428 8.428 0 0 0-.273 2.178zm18.963-14.192v22.154h-2.683V2.462h2.683zm8.365 6.548v15.606h-2.683V9.01h2.683zm-2.885-4.14c0-.433.13-.798.391-1.096.268-.298.662-.447 1.182-.447.51 0 .898.149 1.169.447.278.298.418.663.418 1.096 0 .413-.14.769-.418 1.067-.271.288-.66.433-1.169.433-.519 0-.913-.144-1.182-.433a1.565 1.565 0 0 1-.391-1.067zm14.597 17.842a4 4 0 0 0 1.758-.389c.539-.26.982-.615 1.329-1.067.345-.462.542-.986.591-1.572h2.538c-.049.923-.359 1.784-.938 2.582-.566.788-1.312 1.428-2.235 1.918-.923.481-1.937.721-3.042.721-1.174 0-2.198-.207-3.072-.62a6.074 6.074 0 0 1-2.164-1.702 7.562 7.562 0 0 1-1.285-2.481 10.5 10.5 0 0 1-.418-2.986v-.606c0-1.048.14-2.038.418-2.971a7.543 7.543 0 0 1 1.285-2.495 6.077 6.077 0 0 1 2.164-1.702c.874-.413 1.898-.62 3.072-.62 1.221 0 2.287.25 3.2.75a5.468 5.468 0 0 1 2.149 2.019c.529.846.817 1.808.866 2.885h-2.538a3.847 3.847 0 0 0-.549-1.745 3.413 3.413 0 0 0-1.27-1.24c-.527-.317-1.147-.476-1.858-.476-.817 0-1.506.163-2.063.49-.549.317-.987.75-1.312 1.298a6.055 6.055 0 0 0-.694 1.803 10.034 10.034 0 0 0-.202 2.005v.606c0 .683.069 1.356.202 2.019.135.663.362 1.264.679 1.803a3.75 3.75 0 0 0 1.312 1.298c.556.317 1.25.476 2.078.476zm14.781.288 4.342-13.99h2.855l-6.26 18.014c-.145.385-.337.798-.576 1.24-.231.452-.529.88-.896 1.284a4.231 4.231 0 0 1-1.327.981c-.51.26-1.12.389-1.831.389-.212 0-.48-.029-.807-.086s-.559-.106-.692-.144l-.015-2.163c.076.01.197.019.359.029.175.019.293.029.362.029.606 0 1.12-.082 1.543-.245a2.33 2.33 0 0 0 1.066-.793c.298-.366.554-.87.766-1.515l1.11-3.029zm-3.188-13.99 4.054 12.115.692 2.813-1.918.981-5.74-15.909h2.912z"/>
  <path fill="#4d5ae5" d="M575.193 27.5h197.191v1.442H575.193V27.5z"/>
</symbol>
</svg>
